<?xml version="1.0" encoding="utf-8"?>
<!-- Generator: Adobe Illustrator 24.3.0, SVG Export Plug-In . SVG Version: 6.00 Build 0)  -->
<svg version="1.1" id="レイヤー_1" xmlns="http://www.w3.org/2000/svg" xmlns:xlink="http://www.w3.org/1999/xlink" x="0px"
	 y="0px" viewBox="0 0 289.5 128.01" style="enable-background:new 0 0 289.5 128.01;" xml:space="preserve">
<style type="text/css">
	.st0{fill:#231815;}
</style>
<g>
	<path class="st0" d="M111.54,3.05c-2.45-0.58-3.98-3.8-5.42-2.35c-1.45,1.45,0.18,3.8,1.45,5.79s3.8,2.17,3.98,3.98
		s0.72,1.99,4.16,2.17c3.44,0.18,6.87,0,8.5,0s2.89,1.45,2.35,2.35s-2.71,1.81-3.98,2.71c-1.27,0.9-1.81,2.89-1.08,4.52
		c0.72,1.63,0.9,3.44,1.99,3.98s3.15,1.99,3.2,2.89c0.05,0.9,1.5,1.81-0.85,4.16s-1.45,3.07-3.62,4.16
		c-2.17,1.08-1.99,2.89-3.07,3.07s-0.36,1.45-0.36,2.17s2.53,3.62,1.63,4.88c-0.9,1.27-1.45,1.63-1.81,4.16s-0.9,4.88-3.44,5.42
		c-2.53,0.54-3.25,1.45-7.05,1.27c-3.8-0.18-5.42,0.36-5.97,1.81s2.17,1.81,2.17,1.81s-1.45,0.72,1.81,0.9s3.25,0.18,4.88,0
		s2.89,0.72,1.63,1.63c-1.27,0.9-2.53,2.17-2.53,2.17s1.63,0.54,3.44,0s1.08,0.66,2.89,0.24s1.99-0.42,5.79-2.95
		c3.8-2.53,3.95-3.62,4.96-3.8s3.18-1.08,4.45-0.36s2.17,0.18,2.17,0.18s0.18,8.68,0,11.21s-1.27,6.33-1.27,7.78s0.72,2.89,0.54,4.7
		s0.72,4.34-0.18,6.69c-0.9,2.35-0.36,6.33-0.54,7.78s-0.9,1.63-1.45,4.7c-0.54,3.07,0.72,8.68-2.35,13.2s-3.25,2.17-4.52,4.16
		s-1.81,3.62-1.81,3.62l1.27,1.99h1.99l0.36,2.17h1.99c0,0,2.53-0.54,3.8-1.81c1.27-1.27,3.07-2.89,3.62-5.61s0.9-6.69,1.99-13.92
		s1.08-8.5,1.08-13.02s0-6.87,0-9.04s0.18-7.23,0-9.58c-0.18-2.35-0.54-8.03,1.27-10.89c1.81-2.86-0.9-4.12,1.81-5.03
		s5.79-0.18,7.59-0.36c1.81-0.18,4.34,0,5.97-1.27c1.63-1.27,2.35-1.45,1.99-2.35s-0.54-3.25-3.44-3.62
		c-2.89-0.36-3.8-0.72-7.41,0.18c-3.62,0.9-6.51,1.45-7.78,1.45s-4.52,1.81-7.05,1.27s-4.16-1.27-4.16-1.27l1.08-2.17l1.37-2.35
		c0,0,2.61-1.45,4.24-1.63s2.53-0.36,3.98-1.99c1.45-1.63,2.17-2.89,2.35-3.44c0.18-0.54,1.81-0.36,1.81-2.17
		c0-1.81-1.27-1.63-3.25-2.17c-1.99-0.54-1.99-1.45-3.25-1.99c-1.27-0.54-3.62-1.63-0.72-3.07c2.89-1.45,3.8-2.35,5.42-1.99
		s1.45-1.08,3.98-1.81c2.53-0.72,1.27-1.63,2.71-2.53c1.45-0.9,2.35-1.63,2.17-2.53s-1.08-0.9-2.35-1.99s-1.63-0.9-2.71-1.08
		s-2.71-1.27-3.07-2.35c-0.36-1.08-1.81-1.99-0.18-2.71s1.99-0.72,3.8-1.27s2.71-0.54,5.24-2.71c2.53-2.17,2.53-1.99,2.89-3.07
		c0.36-1.08,0.72-1.45,0.18-1.99s-1.99-2.35-3.8-3.62s-3.98-3.22-8.5-2.24s-5.79,1.16-7.78,1.52c-1.99,0.36-2.17,1.08-4.34,0.9
		c-2.17-0.18-7.41,1.27-9.58,0.9C116.61,3.23,114.62,3.77,111.54,3.05z"/>
	<path class="st0" d="M123.66,78.45c-1.99-1.27-4.7-3.07-4.88-1.63c-0.18,1.45,1.81,1.08,1.45,2.71s1.08,2.53,0.18,3.07
		s-0.93,1.08-1.64,2.17s0.92,1.08,1.1,2.53s1.27,1.27,2.17,1.99c0.9,0.72,1.81,1.45,2.71,0.9c0.9-0.54,1.63-0.9,1.81-2.17
		c0.18-1.27-0.72-2.71,0-3.62c0.72-0.9,1.26-4.02,3.8-5.97C130.35,78.45,126.01,80.08,123.66,78.45S123.66,78.45,123.66,78.45z"/>
	<path class="st0" d="M189.66,45.36c-1.27-1.08-3.07-2.53-3.98,0c-0.9,2.53,1.08,2.35,0,4.34s-0.54,1.81-1.08,2.89
		c-0.54,1.08-0.36,1.08-1.27,2.71c-0.9,1.63-0.9,1.45-1.99,2.17c-1.08,0.72-1.45,0.36-1.99,1.45s0,2.17,0,2.17s1.08,1.08,1.99,2.17
		c0.9,1.08,1.08,0.93,2.17,0.74c1.08-0.19-0.72,1.25,1.08-0.19c1.81-1.45,3.07-1.27,3.44-2.35s0-3.07,1.63-2.89s1.81,0,2.71,0.72
		s1.08-1.27,0.9,0.72s0.54,1.45-0.72,3.07c-1.26,1.62,0.18,0.36-1.27,1.63c-1.45,1.27-1.99,2.35-2.53,2.71
		c-0.54,0.36-1.81,2.17,0.36,3.62s2.35,1.99,2.35,2.71s0,2.54,0,2.54s0.18-0.17,2.53,0c2.35,0.17,2.53-1.09,3.25-2.18
		c0.72-1.08,1.63-1.27,1.63-1.27s-2.17-0.9-1.27-2.53c0.9-1.63-0.54-1.45,1.27-3.25c1.81-1.81,2.53-1.42,3.07-3.06
		c0.54-1.64,1.81-2.91,1.27-5.62s-0.18-3.07-1.99-3.98s-4.34-1.08-6.69-0.9s-3.31-0.54-3.31-0.54s-0.42-0.36,0-2.17
		c0.42-1.81,0.49-2.35,0-3.07C190.75,46.99,189.66,45.36,189.66,45.36z"/>
	<path class="st0" d="M249.88,29.81c-1.27,0.54-1.08,0.18-2.71,1.27c-1.63,1.08-1.08-0.18-1.63,1.08c-0.54,1.27-0.36,1.63,0,2.17
		s0.18,1.08,0.72,2.17c0.54,1.08,0.38,1.81,1.28,1.81c0.89,0,0.89,0,0.89,0s0.54,0.54,1.45,0.9s2.17,0.54,2.35,1.08
		c0.18,0.54,0.18-0.72,0.18,0.54c0,1.27,1.08,1.45,1.08,5.42c0,3.98,1.45,8.5,1.08,11.57c-0.36,3.07-0.18,3.07-1.08,4.7
		c-0.9,1.63-1.27,1.99-2.17,2.71c-0.9,0.72-0.72,1.45-2.35,2.53s-3.78,1.45-3.78,1.45s0.56-3.07,0-4.16
		c-0.56-1.09-0.92-1.63-1.47-2.35c-0.54-0.72,0.72-1.63-2.35-1.63c-3.07,0-3.44-0.36-5.42,0.9c-1.99,1.27-0.9,2.35-4.7,6.33
		s-4.16,1.99-5.42,4.52c-1.27,2.53-1.45,3.98-0.9,4.88c0.54,0.9-0.18,2.71,1.99,3.07s3.62,1.27,5.42,0.9
		c1.81-0.36,3.98-1.81,5.79-2.53c1.81-0.72,2.53-2.85,3.62-2.87c1.08-0.02,3.98,0.34,4.52-1.47c0.54-1.81,0.54-1.81,0.54-1.81
		s1.08,0.05,2.89,3.28c1.81,3.23,2.35,5.39,2.89,5.49c0.54,0.1,1.74,0.26,2.05,0c0.3-0.26,1.57-2.07,3.2-3.7s1.45-0.9,3.07-3.98
		c1.63-3.07,1.99-4.7,1.63-6.87s0.8-3.44,0.13-4.7c-0.67-1.27,0.6-4.7,2.04-4.16s2.17,4.34,3.44,4.88s-0.18,0.36,4.16,1.99
		c4.34,1.63,7.59,3.8,10.13,3.8s4.88-0.54,5.79-1.63c0.9-1.08,1.27-3.05,1.27-3.42c0-0.37-3.62-4.9-6.87-5.98s-2.35-1.81-4.34-3.25
		c-1.99-1.45-2.35-1.99-4.34-2.71c-1.99-0.72-1.45-1.08-3.62-0.18s-1.27,0.36-3.25,1.45c-1.99,1.08-2.35,2.94-3.07,2.55
		c-0.72-0.38-2.35-0.16-2.89,0s-0.18-10.07-0.9-11.92c-0.72-1.85-0.72-1.85-0.72-3.48s-0.9-2.17,0.18-2.89s1.27-1.63,2.53-1.63
		c1.27,0,3.62,1.45,5.61,0.18c1.99-1.27,3.25-1.99,3.07-3.07s-3.44-1.63-4.88-3.25c-1.45-1.63-2.17-3.07-3.62-1.99
		c-1.45,1.08-2.17,1.99-3.8,1.27s-1.45-2.89-4.16-3.07s-3.25-1.81-3.62,0C250.42,27.82,249.88,29.81,249.88,29.81z"/>
</g>
<g>
	<g>
		<path d="M27.44,63.57H16.8c2.2,2.89,6.29,5.03,10.89,5.84c0.29,0.06,0.52,0.32,0.45,0.62c-0.06,0.29-0.32,0.49-0.62,0.42
			c-0.39-0.06-0.75-0.16-1.1-0.23c0.26,1.1-0.75,1.88-1.75,1.49c-3.57-1.36-7-4.31-9.08-7.65v7.98c0,0.58-0.49,1.1-1.07,1.1
			s-1.1-0.52-1.1-1.1v-7.65c-3.05,3.76-7.81,6.78-11.74,8.01c-0.71,0.23-1.04-0.62-0.39-0.97c3.47-1.91,7.49-5.06,9.7-7.85H0.68
			C0.29,63.58,0,63.29,0,62.9c0-0.39,0.29-0.68,0.68-0.68h12.74v-2.2H7.36c-0.1,0.52-0.52,0.88-1.07,0.88c-0.62,0-1.1-0.45-1.1-1.07
			v-8.24c0-0.62,0.49-1.1,1.1-1.1c0.42,0,0.78,0.26,0.97,0.62h14.53c0.19-0.36,0.55-0.62,0.97-0.62c0.62,0,1.1,0.49,1.1,1.1v8.24
			c0,0.62-0.49,1.07-1.1,1.07c-0.55,0-0.97-0.36-1.07-0.88h-6.1v2.24h10.54c0.03-0.68,0.58-1.2,1.26-1.2c0.71,0,1.3,0.55,1.3,1.26
			C28.7,62.89,28.22,63.57,27.44,63.57z M27.02,48.23h-7.78v0.88c0,0.58-0.49,1.07-1.07,1.07s-1.07-0.49-1.07-1.07v-0.88h-5.74v0.88
			c0,0.58-0.49,1.07-1.07,1.07s-1.07-0.49-1.07-1.07v-0.88H0.98c-0.39,0-0.68-0.29-0.68-0.68c0-0.39,0.29-0.71,0.68-0.71h8.24v-2.5
			c0-0.58,0.49-1.07,1.07-1.07s1.07,0.49,1.07,1.07v2.53h5.74v-2.53c0-0.58,0.49-1.07,1.07-1.07s1.07,0.49,1.07,1.07v2.53h6.45
			c0.03-0.68,0.62-1.2,1.3-1.2c0.71,0,1.26,0.58,1.26,1.3C28.25,47.65,27.63,48.23,27.02,48.23z M7.4,54.78h6.03v-2.4H7.4V54.78z
			 M7.4,58.67h6.03v-2.59H7.4V58.67z M15.6,54.78h6.06v-2.4H15.6V54.78z M15.6,58.67h6.06v-2.59H15.6V58.67z"/>
		<path d="M66.96,71.09H45.11v0.52c0,0.65-0.55,1.2-1.2,1.2s-1.17-0.55-1.17-1.2V46.12c0-1.23,1.69-1.62,2.24-0.52H64.5
			c0.06-0.62,0.58-1.1,1.23-1.1c0.68,0,1.2,0.52,1.2,1.2c0,0.65-0.58,1.23-1.23,1.23l-20.59,0.03v22.79h20.62
			c0.03-0.68,0.58-1.26,1.26-1.26c0.71,0,1.3,0.58,1.3,1.3C68.29,70.54,67.71,71.09,66.96,71.09z M65.21,57.57h-5.16v9.89
			c0,0.65-0.52,1.13-1.17,1.13s-1.13-0.49-1.13-1.13v-9.89h-5.58c-0.13,4.7-1.88,8.88-4.09,10.7c-0.49,0.42-1.07-0.16-0.78-0.65
			c1.65-2.92,2.53-6.81,2.56-10.8l0.03-4.96c0-1.26,1.69-1.65,2.27-0.55c2.95-0.55,5.93-1.39,8.24-1.95c0.55-1.2,2.11-1,2.5,0.06
			c0.26,0.68-0.06,1.69-1.43,1.88c-2.59,0.36-6.91,0.91-9.31,1.1v3.83h11.83c0.06-0.62,0.55-1.1,1.2-1.1c0.68,0,1.23,0.52,1.23,1.2
			C66.44,57.05,65.89,57.57,65.21,57.57z"/>
	</g>
</g>
<g>
	<path d="M233.41,105.66c-2.02-0.23-3.91-0.15-5.63,0.08c-0.08,1.09-0.13,2.4-0.05,3.89c0.18,0.33,0.33,0.73,0.4,1.21
		c0.4,2.83-0.53,6.64-6.79,7.73c-0.78,0.13-0.98-0.86-0.2-1.04c2.9-0.71,4.29-2,4.98-3.51c-0.73,0-1.59-0.63-2.58-1.89
		c-0.78-0.99-0.91-2-0.4-2.8c0.68-1.04,2.02-1.31,3.18-0.91c-0.02-0.88-0.05-1.74-0.05-2.42c-1.09,0.18-2.07,0.43-2.9,0.63
		c-2.15,0.53-3.74,0.91-4.75,0.25c-0.48-0.33-0.81-0.86-0.96-1.59c-0.1-0.58,0.43-0.86,0.86-0.48c1.41,1.21,2.8,0.86,5.3,0.25
		c0.71-0.18,1.57-0.35,2.48-0.53c0.08-1.69,0.38-3.16-0.78-3.56c-0.63-0.2-0.5-1.01,0.18-1.01c0.81,0.02,1.39,0.25,1.77,0.66
		c0.68,0.73,0.58,1.89,0.45,3.64c1.62-0.28,3.48-0.43,5.71-0.35c0.5,0.03,0.88,0.38,0.88,0.91
		C234.47,105.41,233.99,105.73,233.41,105.66z M224.24,109.7c-0.3,0.38-0.1,0.88,0.1,1.21c0.58,0.93,1.21,1.34,1.41,1.26
		c0.38-0.1,0.56-0.61,0.56-2.12C225.91,109.25,224.77,109.02,224.24,109.7z"/>
	<path d="M262.63,106.01c-2.02-0.23-3.89-0.15-5.61,0.08c-0.08,1.11-0.15,2.35-0.08,3.84c0.23,0.38,0.35,0.78,0.43,1.21
		c0.48,2.85-0.58,6.64-6.82,7.7c-0.81,0.13-0.98-0.83-0.2-1.01c2.9-0.71,4.29-2,4.98-3.51c-0.73,0-1.59-0.63-2.55-1.89
		c-0.78-0.98-0.93-2-0.43-2.8c0.63-1.04,2.1-1.31,3.18-0.91c-0.03-0.88-0.03-1.67-0.03-2.37c-1.09,0.2-2,0.43-2.88,0.66
		c-2.12,0.53-3.74,0.91-4.75,0.25c-0.48-0.33-0.78-0.86-0.93-1.59c-0.1-0.58,0.4-0.86,0.83-0.48c1.41,1.21,2.8,0.86,5.3,0.25
		c0.71-0.18,1.52-0.38,2.42-0.56c0.08-1.64,0.43-3.13-0.78-3.54c-0.63-0.2-0.48-1.01,0.18-1.01c0.81,0.03,1.39,0.25,1.77,0.66
		c0.68,0.71,0.63,1.89,0.45,3.61c1.64-0.23,3.48-0.4,5.71-0.33c0.51,0.02,0.91,0.38,0.91,0.91
		C263.71,105.79,263.21,106.09,262.63,106.01z M253.46,109.98c-0.3,0.4-0.1,0.86,0.13,1.24c0.58,0.91,1.19,1.34,1.41,1.26
		c0.38-0.1,0.56-0.61,0.56-2.12C255.15,109.52,253.99,109.32,253.46,109.98z M262.55,102.98c-0.38,0.03-0.63-0.2-0.71-0.58
		c-0.23-0.33-0.66-0.96-1.24-1.36c-0.4-0.28-0.1-0.81,0.35-0.68c1.21,0.38,2.07,1.06,2.22,1.74
		C263.31,102.58,263.06,102.96,262.55,102.98z M264.67,101.82c-0.38,0.03-0.63-0.2-0.71-0.58c-0.28-0.38-0.76-0.98-1.24-1.36
		c-0.38-0.28-0.15-0.81,0.33-0.68c1.29,0.38,2.1,1.06,2.25,1.74C265.38,101.37,265.18,101.79,264.67,101.82z"/>
	<path d="M285.21,114.7c-1.01-0.18-2.15-0.38-3.28-0.38c-1.14-0.03-2.02,0.61-2.35,1.19c-0.13,0.28-0.28,0.68,0,1.06
		c0.48,0.68,2.05,1.29,5.28,0.96c0.51-0.2,1.09,0.15,1.09,0.73c0,0.48-0.33,0.81-0.81,0.81c-3.81,0.4-5.86-0.38-6.67-1.59
		c-0.48-0.73-0.48-1.54,0-2.37c0.68-1.19,2.22-1.92,3.94-1.82c0.53,0.03,1.06,0.05,1.54,0.1c1.59,0.15,3.08,0.25,3.48-0.28
		c0.2-0.28,0.3-1.01-0.48-2.7l-0.66-1.44c-0.93,0.38-1.99,0.78-2.8,0.91c-1.74,0.25-2.93,0.03-3.59-0.68
		c-0.33-0.38-0.76-1.11-0.43-2.4c0.18-0.71,0.76-1.51,1.44-2.3c-1.11-0.03-1.89-0.58-2.47-1.16c-0.45-0.46,0.2-1.16,0.71-0.71
		c0.98,0.88,1.94,0.78,3.28,0.05c-0.45-0.45-0.91-0.78-1.34-0.98c-0.48-0.23-0.43-0.86,0.15-0.93c0.91-0.1,1.69,0.3,2.47,1.14
		c0.53-0.43,1.26-0.25,1.26,0.58c0,0.28-0.13,0.48-0.35,0.63c0.68,1.04,1.36,2.37,2.15,3.99l0.66-0.38
		c0.48-0.61,1.49-0.35,1.49,0.48c0,0.38-0.2,0.63-0.48,0.76c-0.13,0.08-0.5,0.25-1.01,0.48l0.83,1.69c1.11,2.25,1.34,3.49,0.78,4.24
		C288.44,115.18,286.97,115.03,285.21,114.7z M283.46,103.92c-1.29,0.81-2.78,2.27-3.06,3.21c-0.18,0.63-0.05,1.01,0.13,1.19
		c0.45,0.53,2.15,0.28,2.8,0.15c0.71-0.13,1.54-0.43,2.32-0.81C284.88,106.14,284.14,104.9,283.46,103.92z"/>
</g>
</svg>
